<?xml version="1.0" encoding="UTF-8"?>
<svg version="1.1" xmlns="http://www.w3.org/2000/svg" width="2560" height="1996">
<path d="M0 0 C5.3044522 1.64109799 9.32032553 5.0114403 13.6875 8.3125 C15.39914821 9.59063608 17.11140197 10.86796157 18.82421875 12.14453125 C20.12238525 13.11447021 20.12238525 13.11447021 21.44677734 14.10400391 C25.26930188 16.94257013 29.13280324 19.72277044 33 22.5 C39.19706849 26.95947108 45.3597704 31.46260386 51.5 36 C59.87937675 42.19025495 68.31107571 48.30474458 76.76611328 54.39111328 C81.26523169 57.63146195 85.75824119 60.88027702 90.25244141 64.12744141 C93.987945 66.82598022 97.7248148 69.52257953 101.46484375 72.21484375 C109.97920681 78.34756679 118.45216202 84.53232789 126.89208984 90.76708984 C135.21502749 96.90919634 143.60432215 102.95790683 152 109 C162.00550398 116.20063208 171.97688478 123.44250786 181.89208984 130.76708984 C189.4766884 136.36432174 197.1158833 141.88408627 204.76611328 147.39111328 C209.26523169 150.63146195 213.75824119 153.88027702 218.25244141 157.12744141 C221.987945 159.82598022 225.7248148 162.52257953 229.46484375 165.21484375 C237.97920681 171.34756679 246.45216202 177.53232789 254.89208984 183.76708984 C263.21502749 189.90919634 271.60432215 195.95790683 280 202 C290.00550398 209.20063208 299.97688478 216.44250786 309.89208984 223.76708984 C317.4766884 229.36432174 325.1158833 234.88408627 332.76611328 240.39111328 C337.26523169 243.63146195 341.75824119 246.88027702 346.25244141 250.12744141 C349.987945 252.82598022 353.7248148 255.52257953 357.46484375 258.21484375 C365.97920681 264.34756679 374.45216202 270.53232789 382.89208984 276.76708984 C391.21502749 282.90919634 399.60432215 288.95790683 408 295 C418.00550398 302.20063208 427.97688478 309.44250786 437.89208984 316.76708984 C445.4766884 322.36432174 453.1158833 327.88408627 460.76611328 333.39111328 C465.26523169 336.63146195 469.75824119 339.88027702 474.25244141 343.12744141 C477.987945 345.82598022 481.7248148 348.52257953 485.46484375 351.21484375 C493.97920681 357.34756679 502.45216202 363.53232789 510.89208984 369.76708984 C519.21502749 375.90919634 527.60432215 381.95790683 536 388 C546.00550398 395.20063208 555.97688478 402.44250786 565.89208984 409.76708984 C573.4766884 415.36432174 581.1158833 420.88408627 588.76611328 426.39111328 C593.26523169 429.63146195 597.75824119 432.88027702 602.25244141 436.12744141 C605.987945 438.82598022 609.7248148 441.52257953 613.46484375 444.21484375 C621.97920681 450.34756679 630.45216202 456.53232789 638.89208984 462.76708984 C647.21502749 468.90919634 655.60432215 474.95790683 664 481 C674.00550398 488.20063208 683.97688478 495.44250786 693.89208984 502.76708984 C701.4766884 508.36432174 709.1158833 513.88408627 716.76611328 519.39111328 C721.26523169 522.63146195 725.75824119 525.88027702 730.25244141 529.12744141 C733.987945 531.82598022 737.7248148 534.52257953 741.46484375 537.21484375 C749.97920681 543.34756679 758.45216202 549.53232789 766.89208984 555.76708984 C775.21502749 561.90919634 783.60432215 567.95790683 792 574 C802.34300163 581.44351804 812.65395346 588.92577431 822.89624023 596.50756836 C823.65106689 597.06581299 824.40589355 597.62405762 825.18359375 598.19921875 C825.84931396 598.69252686 826.51503418 599.18583496 827.20092773 599.6940918 C828.77294785 600.83518769 830.38373356 601.92248904 832 603 C830.48370696 610.58297443 828.21711663 617.78980918 825.7734375 625.12109375 C825.34872171 626.40644713 824.92445223 627.69194806 824.50059509 628.97758484 C823.59868421 631.71101942 822.69434644 634.44363299 821.78799438 637.17559814 C819.39116822 644.40137088 817.01053257 651.63248768 814.62890625 658.86328125 C814.38906446 659.59099983 814.14922268 660.31871841 813.90211296 661.06848907 C809.29121143 675.06161006 804.77999443 689.08542539 800.3125 703.125 C794.68518963 720.79962082 788.95099141 738.43144815 783 756 C779.47716742 756 778.78684141 755.36479785 776.04296875 753.2890625 C774.87979126 752.41882446 774.87979126 752.41882446 773.69311523 751.53100586 C772.45283569 750.58753296 772.45283569 750.58753296 771.1875 749.625 C769.4537281 748.32601755 767.71934943 747.02784461 765.984375 745.73046875 C765.13166016 745.09028809 764.27894531 744.45010742 763.40039062 743.79052734 C760.27742995 741.46101213 757.11653252 739.18959058 753.9375 736.9375 C752.81495605 736.13953124 751.69256286 735.34135036 750.5703125 734.54296875 C749.99829102 734.1361084 749.42626953 733.72924805 748.83691406 733.31005859 C738.18891518 725.71607109 727.62824638 718.00447852 717.10888672 710.23364258 C708.7856412 704.09126792 700.39600805 698.04233081 692 692 C681.99449602 684.79936792 672.02311522 677.55749214 662.10791016 670.23291016 C654.5233116 664.63567826 646.8841167 659.11591373 639.23388672 653.60888672 C634.73476831 650.36853805 630.24175881 647.11972298 625.74755859 643.87255859 C622.012055 641.17401978 618.2751852 638.47742047 614.53515625 635.78515625 C606.02079319 629.65243321 597.54783798 623.46767211 589.10791016 617.23291016 C580.78497251 611.09080366 572.39567785 605.04209317 564 599 C553.99449602 591.79936792 544.02311522 584.55749214 534.10791016 577.23291016 C526.5233116 571.63567826 518.8841167 566.11591373 511.23388672 560.60888672 C506.73476831 557.36853805 502.24175881 554.11972298 497.74755859 550.87255859 C494.012055 548.17401978 490.2751852 545.47742047 486.53515625 542.78515625 C478.02079319 536.65243321 469.54783798 530.46767211 461.10791016 524.23291016 C452.78497251 518.09080366 444.39567785 512.04209317 436 506 C425.99449602 498.79936792 416.02311522 491.55749214 406.10791016 484.23291016 C398.5233116 478.63567826 390.8841167 473.11591373 383.23388672 467.60888672 C378.73476831 464.36853805 374.24175881 461.11972298 369.74755859 457.87255859 C366.012055 455.17401978 362.2751852 452.47742047 358.53515625 449.78515625 C350.02079319 443.65243321 341.54783798 437.46767211 333.10791016 431.23291016 C324.78497251 425.09080366 316.39567785 419.04209317 308 413 C297.99449602 405.79936792 288.02311522 398.55749214 278.10791016 391.23291016 C270.5233116 385.63567826 262.8841167 380.11591373 255.23388672 374.60888672 C250.73476831 371.36853805 246.24175881 368.11972298 241.74755859 364.87255859 C238.012055 362.17401978 234.2751852 359.47742047 230.53515625 356.78515625 C222.02079319 350.65243321 213.54783798 344.46767211 205.10791016 338.23291016 C196.78497251 332.09080366 188.39567785 326.04209317 180 320 C170.53241954 313.18649379 161.08311709 306.35006082 151.6875 299.4375 C150.89287354 298.85363525 150.09824707 298.26977051 149.27954102 297.66821289 C148.53115967 297.11641357 147.78277832 296.56461426 147.01171875 295.99609375 C146.35647217 295.51325928 145.70122559 295.0304248 145.02612305 294.53295898 C144.35750244 294.02708252 143.68888184 293.52120605 143 293 C141.77011353 292.16831299 141.77011353 292.16831299 140.51538086 291.31982422 C137.18352385 288.24700025 135.64285394 284.95404299 133.7421875 280.88671875 C133.3572966 280.08898544 132.9724057 279.29125214 132.57585144 278.46934509 C131.33040818 275.88087787 130.10263866 273.28445202 128.875 270.6875 C128.01731173 268.89643729 127.15850119 267.10591159 126.29858398 265.31591797 C124.21567508 260.97376218 122.14603352 256.62545401 120.08111572 252.27471924 C118.6389905 249.24041873 117.18571639 246.21162281 115.73046875 243.18359375 C113.99128213 239.56277519 112.25769585 235.93941101 110.53125 232.3125 C107.72153118 226.41032336 104.89261918 220.51741605 102.0625 214.625 C101.05077602 212.51823168 100.03905727 210.41146085 99.02734375 208.3046875 C98.5257373 207.26022461 98.02413086 206.21576172 97.50732422 205.13964844 C96.02614357 202.05445518 94.54608309 198.96872724 93.06640625 195.8828125 C87.70619095 184.70573793 82.33052704 173.53627217 76.9375 162.375 C71.83582055 151.8165004 66.76089497 141.24553184 61.70703125 130.6640625 C58.83302678 124.6474354 55.94862567 118.63582033 53.0625 112.625 C52.56347168 111.58569336 52.06444336 110.54638672 51.55029297 109.47558594 C50.53894166 107.36944602 49.52754832 105.26332627 48.51611328 103.15722656 C46.50967239 98.9789184 44.50394303 94.80026891 42.49829102 90.62158203 C41.49754078 88.53659058 40.49672674 86.45162976 39.49584961 84.36669922 C37.01966719 79.2084884 34.54420342 74.04993525 32.0703125 68.890625 C27.26995275 58.88156787 22.46043804 48.87709917 17.62890625 38.88305664 C14.74825104 32.92413559 11.87338629 26.96242934 9 21 C8.50709473 19.97825684 8.01418945 18.95651367 7.50634766 17.90380859 C6.20819799 15.20877162 4.91545569 12.5112276 3.625 9.8125 C3.06196167 8.64581787 3.06196167 8.64581787 2.48754883 7.45556641 C0 2.23057251 0 2.23057251 0 0 Z " fill="#00519B" transform="translate(431,237)"/>
<path d="M0 0 C-1.56472796 5.19800041 -3.78510288 9.89790735 -6.18359375 14.74609375 C-6.59497086 15.58547989 -7.00634796 16.42486603 -7.43019104 17.28968811 C-8.30836445 19.08064086 -9.18820748 20.87077573 -10.06958008 22.66015625 C-12.36497668 27.32059383 -14.64823724 31.98697706 -16.93359375 36.65234375 C-17.38068695 37.5641037 -17.82778015 38.47586365 -18.28842163 39.41525269 C-21.56169734 46.09322825 -24.80239596 52.78539933 -28 59.5 C-28.41636719 60.37406494 -28.83273437 61.24812988 -29.26171875 62.14868164 C-30.08377512 63.87535547 -30.90555664 65.60216018 -31.72705078 67.32910156 C-34.11979347 72.34954748 -36.52954778 77.36183612 -38.9375 82.375 C-39.94922921 84.48176581 -40.96094797 86.58853664 -41.97265625 88.6953125 C-42.72506592 90.26200684 -42.72506592 90.26200684 -43.49267578 91.86035156 C-44.97385643 94.94554482 -46.45391691 98.03127276 -47.93359375 101.1171875 C-53.29380905 112.29426207 -58.66947296 123.46372783 -64.0625 134.625 C-69.1667122 145.18874142 -74.24393748 155.7650656 -79.30078125 166.3515625 C-86.81454993 182.08086009 -94.37627787 197.78696862 -101.96005249 213.48260498 C-105.86436243 221.56411749 -109.75575634 229.65163217 -113.625 237.75 C-114.06247559 238.66547607 -114.49995117 239.58095215 -114.95068359 240.52416992 C-116.80345897 244.40190535 -118.65597533 248.27976447 -120.50830078 252.15771484 C-121.02247559 253.23359863 -121.53665039 254.30948242 -122.06640625 255.41796875 C-122.58154785 256.4963501 -123.09668945 257.57473145 -123.62744141 258.68579102 C-124.65912585 260.83618305 -125.69647451 262.98386769 -126.73974609 265.12866211 C-128.9231612 269.61899506 -131.07397304 274.0919773 -132.97265625 278.7109375 C-137.39824684 289.15813428 -143.55844804 294.49264115 -152.97460938 300.66357422 C-155.43244428 302.28534233 -157.81544473 303.99651159 -160.19946289 305.72412109 C-161.9002567 306.95579023 -163.61073795 308.17277336 -165.32421875 309.38671875 C-176.60159523 317.39190309 -187.76761432 325.54923317 -198.89111328 333.76635742 C-207.95106021 340.45240175 -217.09036112 347.02736019 -226.22949219 353.60449219 C-234.68593036 359.6923875 -243.11888909 365.80868741 -251.5 372 C-259.87948458 378.19011119 -268.31107363 384.30474309 -276.76611328 390.39111328 C-280.51359769 393.09012118 -284.25661201 395.79531494 -288 398.5 C-292.48610379 401.74131453 -296.97304831 404.98141954 -301.46484375 408.21484375 C-309.17462973 413.76804624 -316.85757631 419.35437205 -324.5 425 C-334.35407821 432.27942622 -344.28574334 439.44830324 -354.22949219 446.60449219 C-362.68593036 452.6923875 -371.11888909 458.80868741 -379.5 465 C-387.87948458 471.19011119 -396.31107363 477.30474309 -404.76611328 483.39111328 C-408.51359769 486.09012118 -412.25661201 488.79531494 -416 491.5 C-420.48610379 494.74131453 -424.97304831 497.98141954 -429.46484375 501.21484375 C-437.17462973 506.76804624 -444.85757631 512.35437205 -452.5 518 C-462.35407821 525.27942622 -472.28574334 532.44830324 -482.22949219 539.60449219 C-490.68593036 545.6923875 -499.11888909 551.80868741 -507.5 558 C-515.87948458 564.19011119 -524.31107363 570.30474309 -532.76611328 576.39111328 C-536.51359769 579.09012118 -540.25661201 581.79531494 -544 584.5 C-548.48610379 587.74131453 -552.97304831 590.98141954 -557.46484375 594.21484375 C-565.17462973 599.76804624 -572.85757631 605.35437205 -580.5 611 C-590.35407821 618.27942622 -600.28574334 625.44830324 -610.22949219 632.60449219 C-618.68593036 638.6923875 -627.11888909 644.80868741 -635.5 651 C-643.87948458 657.19011119 -652.31107363 663.30474309 -660.76611328 669.39111328 C-664.51359769 672.09012118 -668.25661201 674.79531494 -672 677.5 C-676.48610379 680.74131453 -680.97304831 683.98141954 -685.46484375 687.21484375 C-693.17462973 692.76804624 -700.85757631 698.35437205 -708.5 704 C-718.35407821 711.27942622 -728.28574334 718.44830324 -738.22949219 725.60449219 C-748.42862026 732.9469717 -758.58477618 740.34450603 -768.6953125 747.80859375 C-769.40848633 748.33437012 -770.12166016 748.86014648 -770.85644531 749.40185547 C-772.33372547 750.50325364 -773.80133471 751.61770272 -775.26074219 752.74267578 C-776.33437012 753.56807861 -776.33437012 753.56807861 -777.4296875 754.41015625 C-778.06890137 754.90781494 -778.70811523 755.40547363 -779.36669922 755.91821289 C-781 757 -781 757 -783 757 C-783.26514404 756.18173233 -783.53028809 755.36346466 -783.8034668 754.520401 C-787.20147808 744.03416389 -790.60043713 733.54823419 -794 723.0625 C-794.2726833 722.22140434 -794.54536659 721.38030869 -794.82631302 720.51372528 C-801.51763861 699.87482676 -808.21626531 679.23844496 -814.95974731 658.61651611 C-815.92672341 655.65797189 -816.89221775 652.69894845 -817.85717773 649.73974609 C-818.46464124 647.87726568 -819.07214331 646.01479785 -819.6796875 644.15234375 C-819.96548172 643.27622437 -820.25127594 642.40010498 -820.54573059 641.49743652 C-822.11539906 636.69105926 -823.69730269 631.88899995 -825.29350281 627.09136963 C-825.97904762 625.02798416 -826.66044472 622.96328516 -827.34008789 620.89794922 C-828.1199151 618.53090031 -828.90738121 616.166345 -829.70483398 613.80517578 C-830.19318726 612.3141333 -830.19318726 612.3141333 -830.69140625 610.79296875 C-830.97185791 609.9527417 -831.25230957 609.11251465 -831.54125977 608.24682617 C-832.05936424 605.70924478 -831.99872718 604.38360381 -831 602 C-829.62744141 600.66650391 -829.62744141 600.66650391 -827.8515625 599.4765625 C-827.18584229 599.02031494 -826.52012207 598.56406738 -825.83422852 598.09399414 C-825.10518311 597.60922607 -824.3761377 597.12445801 -823.625 596.625 C-822.06245604 595.55534906 -820.50130839 594.48365617 -818.94140625 593.41015625 C-818.12687988 592.85215332 -817.31235352 592.29415039 -816.47314453 591.71923828 C-812.44151757 588.91660086 -808.50364437 585.99035852 -804.5625 583.0625 C-794.69252656 575.75516489 -784.73807688 568.56883939 -774.77050781 561.39550781 C-766.31406964 555.3076125 -757.88111091 549.19131259 -749.5 543 C-741.12051542 536.80988881 -732.68892637 530.69525691 -724.23388672 524.60888672 C-720.48640231 521.90987882 -716.74338799 519.20468506 -713 516.5 C-708.51389621 513.25868547 -704.02695169 510.01858046 -699.53515625 506.78515625 C-691.82537027 501.23195376 -684.14242369 495.64562795 -676.5 490 C-666.64592179 482.72057378 -656.71425666 475.55169676 -646.77050781 468.39550781 C-638.31406964 462.3076125 -629.88111091 456.19131259 -621.5 450 C-613.12051542 443.80988881 -604.68892637 437.69525691 -596.23388672 431.60888672 C-592.48640231 428.90987882 -588.74338799 426.20468506 -585 423.5 C-580.51389621 420.25868547 -576.02695169 417.01858046 -571.53515625 413.78515625 C-563.82537027 408.23195376 -556.14242369 402.64562795 -548.5 397 C-538.64592179 389.72057378 -528.71425666 382.55169676 -518.77050781 375.39550781 C-510.31406964 369.3076125 -501.88111091 363.19131259 -493.5 357 C-485.12051542 350.80988881 -476.68892637 344.69525691 -468.23388672 338.60888672 C-464.48640231 335.90987882 -460.74338799 333.20468506 -457 330.5 C-452.51389621 327.25868547 -448.02695169 324.01858046 -443.53515625 320.78515625 C-435.82537027 315.23195376 -428.14242369 309.64562795 -420.5 304 C-410.64592179 296.72057378 -400.71425666 289.55169676 -390.77050781 282.39550781 C-382.31406964 276.3076125 -373.88111091 270.19131259 -365.5 264 C-357.12051542 257.80988881 -348.68892637 251.69525691 -340.23388672 245.60888672 C-336.48640231 242.90987882 -332.74338799 240.20468506 -329 237.5 C-324.51389621 234.25868547 -320.02695169 231.01858046 -315.53515625 227.78515625 C-307.82537027 222.23195376 -300.14242369 216.64562795 -292.5 211 C-282.64592179 203.72057378 -272.71425666 196.55169676 -262.77050781 189.39550781 C-254.31406964 183.3076125 -245.88111091 177.19131259 -237.5 171 C-227.64592179 163.72057378 -217.71425666 156.55169676 -207.77050781 149.39550781 C-199.22947007 143.24670821 -190.71408236 137.06694003 -182.25 130.8125 C-175.73131921 125.99605784 -169.1755172 121.23977065 -162.5703125 116.54296875 C-151.33484157 108.55154225 -140.19855572 100.42577605 -129.10888672 92.23364258 C-120.04893979 85.54759825 -110.90963888 78.97263981 -101.77050781 72.39550781 C-93.31406964 66.3076125 -84.88111091 60.19131259 -76.5 54 C-68.12051542 47.80988881 -59.68892637 41.69525691 -51.23388672 35.60888672 C-47.48640219 32.90987874 -43.74343045 30.20462647 -40 27.5 C-35.41846221 24.19072232 -30.83659418 20.88190357 -26.25390625 17.57421875 C-25.08408203 16.72960083 -25.08408203 16.72960083 -23.890625 15.86791992 C-22.35848875 14.7620376 -20.82594741 13.65671624 -19.29296875 12.55200195 C-16.01420904 10.18737154 -12.74149132 7.81652496 -9.49609375 5.40625 C-8.50738281 4.6740625 -7.51867188 3.941875 -6.5 3.1875 C-5.6646875 2.56230469 -4.829375 1.93710938 -3.96875 1.29296875 C-2 0 -2 0 0 0 Z " fill="#00519B" transform="translate(2130,237)"/>
<path d="M0 0 C-1.49067953 4.88165469 -3.49341533 9.31160491 -5.74609375 13.87109375 C-6.11289749 14.62133316 -6.47970123 15.37157257 -6.85762024 16.14454651 C-7.64145451 17.74681708 -8.42695725 19.34827234 -9.21398926 20.94897461 C-10.86649632 24.31004504 -12.51090841 27.67505201 -14.15560913 31.03994751 C-14.97457306 32.71541197 -15.79392768 34.39068552 -16.61367798 36.06576538 C-19.69325179 42.36102109 -22.73756483 48.67231686 -25.75 55 C-29.80618223 63.51321623 -33.89594975 72.00979254 -38 80.5 C-43.12302996 91.09992046 -48.21898944 101.71243844 -53.29296875 112.3359375 C-57.67596293 121.51158141 -62.08176913 130.67629394 -66.48388672 139.84277344 C-68.49032761 144.0210816 -70.49605697 148.19973109 -72.50170898 152.37841797 C-73.50245922 154.46340942 -74.50327326 156.54837024 -75.50415039 158.63330078 C-77.98033281 163.7915116 -80.45579658 168.95006475 -82.9296875 174.109375 C-88.29136867 185.28897479 -93.66820649 196.46110678 -99.0625 207.625 C-103.71332477 217.25040511 -108.34635175 226.8840681 -112.95288086 236.53076172 C-115.30702463 241.46057502 -117.66526027 246.38835893 -120.03125 251.3125 C-120.54171875 252.37573486 -121.0521875 253.43896973 -121.578125 254.53442383 C-122.60102172 256.66077683 -123.6270139 258.7856438 -124.65625 260.90893555 C-126.99423692 265.74511324 -129.27986764 270.58621713 -131.40625 275.51953125 C-135.57491797 285.09740184 -138.97305959 291.27248183 -148 297 C-150.08302407 298.48468033 -152.14420628 299.99740861 -154.20703125 301.51000977 C-156.5356558 303.21358507 -158.87677644 304.89840379 -161.22265625 306.578125 C-165.80030756 309.85624799 -170.37157369 313.14306571 -174.9375 316.4375 C-175.67677734 316.97076904 -176.41605469 317.50403809 -177.17773438 318.0534668 C-182.64296862 322.00274916 -188.07655384 325.99357998 -193.5 330 C-201.87948458 336.19011119 -210.31107363 342.30474309 -218.76611328 348.39111328 C-222.51359769 351.09012118 -226.25661201 353.79531494 -230 356.5 C-234.48610379 359.74131453 -238.97304831 362.98141954 -243.46484375 366.21484375 C-251.17462973 371.76804624 -258.85757631 377.35437205 -266.5 383 C-274.87948458 389.19011119 -283.31107363 395.30474309 -291.76611328 401.39111328 C-296.25500648 404.62409756 -300.73793623 407.8653482 -305.22167969 411.10546875 C-309.13067319 413.92967799 -313.04203745 416.75051921 -316.95703125 419.56640625 C-317.76978516 420.15164063 -318.58253906 420.736875 -319.41992188 421.33984375 C-320.97123996 422.45679277 -322.52327969 423.57274047 -324.07617188 424.6875 C-324.77935547 425.19410156 -325.48253906 425.70070313 -326.20703125 426.22265625 C-326.8203833 426.66359619 -327.43373535 427.10453613 -328.06567383 427.55883789 C-330.10298287 428.99244133 -330.10298287 428.99244133 -331.96403027 431.060009 C-336.41703125 433.90548593 -340.32780973 433.54133711 -345.50984192 433.48101807 C-346.57992121 433.48443577 -347.6500005 433.48785347 -348.75250643 433.49137473 C-352.3441458 433.49797207 -355.93504062 433.47594589 -359.52661133 433.45410156 C-362.09874453 433.45297349 -364.67087902 433.45360615 -367.24301147 433.45587158 C-372.78368168 433.45796832 -378.32416336 433.44542544 -383.86478615 433.42292023 C-391.87554936 433.39040284 -399.88622149 433.3799935 -407.89704355 433.37496826 C-420.89422328 433.36621518 -433.89130255 433.3395993 -446.88842773 433.30175781 C-459.51342262 433.26503803 -472.13839022 433.23672612 -484.76342773 433.21972656 C-485.54171996 433.21867567 -486.32001219 433.21762477 -487.12188903 433.21654204 C-491.02637829 433.21132186 -494.93086773 433.20626703 -498.83535731 433.20129442 C-531.22364455 433.159832 -563.61180832 433.08938326 -596 433 C-593.18067013 430.15255223 -590.47658735 427.44757446 -587.20703125 425.125 C-586.15237671 424.37005249 -586.15237671 424.37005249 -585.07641602 423.59985352 C-583.95577759 422.80792603 -583.95577759 422.80792603 -582.8125 422 C-581.19264523 420.84253623 -579.57285535 419.68498164 -577.953125 418.52734375 C-577.12876953 417.94065918 -576.30441406 417.35397461 -575.45507812 416.74951172 C-571.64665385 414.03559283 -567.85377921 411.30029703 -564.0625 408.5625 C-563.32362549 408.02947266 -562.58475098 407.49644531 -561.82348633 406.94726562 C-556.35769631 402.99794412 -550.92382609 399.00670068 -545.5 395 C-535.64592179 387.72057378 -525.71425666 380.55169676 -515.77050781 373.39550781 C-507.22947007 367.24670821 -498.71408236 361.06694003 -490.25 354.8125 C-483.73131921 349.99605784 -477.1755172 345.23977065 -470.5703125 340.54296875 C-459.33484157 332.55154225 -448.19855572 324.42577605 -437.10888672 316.23364258 C-428.04893979 309.54759825 -418.90963888 302.97263981 -409.77050781 296.39550781 C-401.31406964 290.3076125 -392.88111091 284.19131259 -384.5 278 C-376.12051542 271.80988881 -367.68892637 265.69525691 -359.23388672 259.60888672 C-355.48640231 256.90987882 -351.74338799 254.20468506 -348 251.5 C-343.51389621 248.25868547 -339.02695169 245.01858046 -334.53515625 241.78515625 C-326.82537027 236.23195376 -319.14242369 230.64562795 -311.5 225 C-301.64592179 217.72057378 -291.71425666 210.55169676 -281.77050781 203.39550781 C-273.31406964 197.3076125 -264.88111091 191.19131259 -256.5 185 C-246.64592179 177.72057378 -236.71425666 170.55169676 -226.77050781 163.39550781 C-218.31406964 157.3076125 -209.88111091 151.19131259 -201.5 145 C-193.12051542 138.80988881 -184.68892637 132.69525691 -176.23388672 126.60888672 C-172.48640231 123.90987882 -168.74338799 121.20468506 -165 118.5 C-160.51389621 115.25868547 -156.02695169 112.01858046 -151.53515625 108.78515625 C-143.82537027 103.23195376 -136.14242369 97.64562795 -128.5 92 C-118.64592179 84.72057378 -108.71425666 77.55169676 -98.77050781 70.39550781 C-90.31406964 64.3076125 -81.88111091 58.19131259 -73.5 52 C-63.64592179 44.72057378 -53.71425666 37.55169676 -43.77050781 30.39550781 C-34.29078411 23.57093648 -24.84567825 16.70331354 -15.45532227 9.75610352 C-13.30621276 8.16708336 -11.15323325 6.58342478 -9 5 C-8.32888184 4.49984375 -7.65776367 3.9996875 -6.96630859 3.484375 C-2.22545427 0 -2.22545427 0 0 0 Z " fill="#00519B" transform="translate(1956,599)"/>
<path d="M0 0 C4.32626551 1.46061074 7.37878019 3.66379455 10.9375 6.5 C15.44839917 10.04735619 20.00380272 13.49634503 24.6875 16.8125 C25.54843262 17.42303223 25.54843262 17.42303223 26.42675781 18.04589844 C27.63983382 18.90595941 28.85305419 19.7658168 30.06640625 20.62548828 C40.75745564 28.22531253 51.34092177 35.97274545 61.89111328 43.76635742 C70.2143588 49.90873208 78.60399195 55.95766919 87 62 C96.28521077 68.68226075 105.54949699 75.38889007 114.75 82.1875 C121.26868079 87.00394216 127.8244828 91.76022935 134.4296875 96.45703125 C145.66515843 104.44845775 156.80144428 112.57422395 167.89111328 120.76635742 C176.2143588 126.90873208 184.60399195 132.95766919 193 139 C203.00550398 146.20063208 212.97688478 153.44250786 222.89208984 160.76708984 C230.4766884 166.36432174 238.1158833 171.88408627 245.76611328 177.39111328 C250.26523169 180.63146195 254.75824119 183.88027702 259.25244141 187.12744141 C262.987945 189.82598022 266.7248148 192.52257953 270.46484375 195.21484375 C278.97920681 201.34756679 287.45216202 207.53232789 295.89208984 213.76708984 C304.21502749 219.90919634 312.60432215 225.95790683 321 232 C331.00550398 239.20063208 340.97688478 246.44250786 350.89208984 253.76708984 C358.4766884 259.36432174 366.1158833 264.88408627 373.76611328 270.39111328 C378.26523169 273.63146195 382.75824119 276.88027702 387.25244141 280.12744141 C390.987945 282.82598022 394.7248148 285.52257953 398.46484375 288.21484375 C406.97920681 294.34756679 415.45216202 300.53232789 423.89208984 306.76708984 C432.21502749 312.90919634 440.60432215 318.95790683 449 325 C459.00550398 332.20063208 468.97688478 339.44250786 478.89208984 346.76708984 C487.21502749 352.90919634 495.60432215 358.95790683 504 365 C514.00550398 372.20063208 523.97688478 379.44250786 533.89208984 386.76708984 C541.4766884 392.36432174 549.1158833 397.88408627 556.76611328 403.39111328 C561.25238119 406.62220678 565.73365004 409.86024679 570.21289062 413.10107422 C574.16529521 415.95935449 578.12570961 418.80564238 582.09765625 421.63671875 C582.92845703 422.23097656 583.75925781 422.82523438 584.61523438 423.4375 C586.21695075 424.58286143 587.82103233 425.72492423 589.42773438 426.86328125 C590.14380859 427.37632812 590.85988281 427.889375 591.59765625 428.41796875 C592.23195557 428.86938232 592.86625488 429.3207959 593.51977539 429.78588867 C595 431 595 431 596 433 C563.02268679 433.2751152 530.04567306 433.4863417 497.06747273 433.61278395 C493.16753854 433.62779109 489.2676066 433.64332309 485.36767578 433.65917969 C484.59132229 433.66232741 483.8149688 433.66547514 483.01508945 433.66871825 C470.47078458 433.72082863 457.92714464 433.81538339 445.38323325 433.92583355 C432.49653609 434.03834929 419.61018536 434.10476744 406.72301722 434.12906194 C398.78077628 434.14546734 390.84041512 434.19713074 382.8987534 434.2949976 C376.79231873 434.36638096 370.68729449 434.37338903 364.58049965 434.35729218 C362.08763931 434.36057605 359.59470353 434.38421435 357.10227013 434.4304657 C341.67584732 434.70253118 331.82592853 433.33104654 320.47840881 422.39101171 C318.50409436 420.53341014 316.35693004 418.98537573 314.1328125 417.44140625 C313.46515869 416.9606665 312.79750488 416.47992676 312.10961914 415.98461914 C311.45469482 415.51531982 310.79977051 415.04602051 310.125 414.5625 C308.60546331 413.46875756 307.08593222 412.37500733 305.56640625 411.28125 C304.04428558 410.18747948 302.52215023 409.09372938 301 408 C291.71343601 401.31965874 282.45047183 394.61108689 273.25 387.8125 C266.73131921 382.99605784 260.1755172 378.23977065 253.5703125 373.54296875 C242.33484157 365.55154225 231.19855572 357.42577605 220.10888672 349.23364258 C212.52397852 343.63614485 204.88444692 338.11615144 197.23388672 332.60888672 C192.73476831 329.36853805 188.24175881 326.11972298 183.74755859 322.87255859 C179.26712149 319.63587761 174.78357279 316.40357457 170.29760742 313.17456055 C168.06754255 311.56613692 165.8421476 309.95141285 163.6171875 308.3359375 C160.37034955 305.98033345 157.10104895 303.65968584 153.8203125 301.3515625 C152.1091403 300.13053717 150.39819697 298.90919104 148.6875 297.6875 C147.89287354 297.13715088 147.09824707 296.58680176 146.27954102 296.01977539 C145.53115967 295.4808667 144.78277832 294.94195801 144.01171875 294.38671875 C143.35647217 293.92483154 142.70122559 293.46294434 142.02612305 292.98706055 C136.97224433 288.03061774 133.98742189 281.25030217 130.9609375 274.93359375 C130.4169632 273.81220757 130.4169632 273.81220757 129.86199951 272.66816711 C128.69524692 270.26005346 127.53500484 267.8488703 126.375 265.4375 C125.56398506 263.75992396 124.75262178 262.08251628 123.94091797 260.40527344 C121.62061095 255.60671448 119.30865606 250.80417356 117 246 C116.15018555 244.23197021 116.15018555 244.23197021 115.28320312 242.42822266 C112.61425299 236.8684944 109.95756038 231.30299744 107.30517578 225.73535156 C104.89983651 220.69430756 102.48062698 215.65991908 100.0625 210.625 C99.05078125 208.51822917 98.0390625 206.41145833 97.02734375 204.3046875 C96.5257373 203.26022461 96.02413086 202.21576172 95.50732422 201.13964844 C94.02614357 198.05445518 92.54608309 194.96872724 91.06640625 191.8828125 C85.70619095 180.70573793 80.33052704 169.53627217 74.9375 158.375 C69.8332878 147.81125858 64.75606252 137.2349344 59.69921875 126.6484375 C52.18545007 110.91913991 44.62372213 95.21303138 37.03994751 79.51739502 C32.68950443 70.51243367 28.35853755 61.49839577 24.04931641 52.47363281 C21.16457469 46.4323445 18.26974329 40.39600334 15.36865234 34.36254883 C12.9082421 29.24370661 10.45374883 24.12203782 8 19 C7.56929199 18.10265137 7.13858398 17.20530273 6.69482422 16.28076172 C5.54239566 13.8766283 4.39520848 11.47007919 3.25 9.0625 C2.91460205 8.36463379 2.5792041 7.66676758 2.23364258 6.94775391 C0 2.22994427 0 2.22994427 0 0 Z " fill="#00519B" transform="translate(605,599)"/>
<path d="M0 0 C0.66 0 1.32 0 2 0 C10.94740594 18.38497276 19.87990782 36.77574103 28.67871094 55.23242188 C31.09031566 60.28378017 33.51428687 65.32920283 35.9375 70.375 C36.43822021 71.41769043 36.93894043 72.46038086 37.45483398 73.53466797 C38.46742438 75.64324047 39.48003834 77.75180165 40.49267578 79.86035156 C41.97385643 82.94554482 43.45391691 86.03127276 44.93359375 89.1171875 C50.29380905 100.29426207 55.66947296 111.46372783 61.0625 122.625 C65.7126121 132.24893016 70.34513954 141.88101784 74.95068359 151.52636719 C77.83537752 157.56755542 80.72982746 163.60395449 83.6315918 169.63696289 C85.15111707 172.79928263 86.66564665 175.96395787 88.1796875 179.12890625 C89.95431738 182.83560258 91.74983107 186.53046832 93.5703125 190.21484375 C93.95292236 190.99939941 94.33553223 191.78395508 94.72973633 192.59228516 C95.4284473 194.02499713 96.13600481 195.45344437 96.85424805 196.87646484 C99.06175395 201.44221592 99.06175395 201.44221592 98.77368164 204.04418945 C97.83648706 206.41334875 96.95383623 207.11479271 94.8515625 208.5234375 C94.18584229 208.97968506 93.52012207 209.43593262 92.83422852 209.90600586 C92.10518311 210.39077393 91.3761377 210.87554199 90.625 211.375 C89.06245604 212.44465094 87.50130839 213.51634383 85.94140625 214.58984375 C85.12687988 215.14784668 84.31235352 215.70584961 83.47314453 216.28076172 C79.44151757 219.08339914 75.50364437 222.00964148 71.5625 224.9375 C61.69252656 232.24483511 51.73807688 239.43116061 41.77050781 246.60449219 C33.31406964 252.6923875 24.88111091 258.80868741 16.5 265 C8.12051542 271.19011119 -0.31107363 277.30474309 -8.76611328 283.39111328 C-12.51359769 286.09012118 -16.25661201 288.79531494 -20 291.5 C-24.48610379 294.74131453 -28.97304831 297.98141954 -33.46484375 301.21484375 C-41.17462973 306.76804624 -48.85757631 312.35437205 -56.5 318 C-66.35407821 325.27942622 -76.28574334 332.44830324 -86.22949219 339.60449219 C-94.77052993 345.75329179 -103.28591764 351.93305997 -111.75 358.1875 C-118.26868079 363.00394216 -124.8244828 367.76022935 -131.4296875 372.45703125 C-142.66000334 380.44479111 -153.79198204 388.56585663 -164.87573242 396.75537109 C-171.13956546 401.37869177 -177.4373502 405.95321325 -183.7578125 410.4987793 C-187.01909559 412.84428767 -190.2750613 415.1945224 -193.5 417.58984375 C-194.49 418.32332031 -195.48 419.05679687 -196.5 419.8125 C-197.3353125 420.43769531 -198.170625 421.06289063 -199.03125 421.70703125 C-201 423 -201 423 -203 423 C-201.39998595 417.64488392 -199.06824606 412.80754321 -196.59765625 407.81640625 C-196.16403778 406.93253738 -195.73041931 406.04866852 -195.28366089 405.13801575 C-194.35836402 403.25281343 -193.43139653 401.36843032 -192.50289917 399.48480225 C-190.09083883 394.59118005 -187.69094535 389.69159186 -185.2890625 384.79296875 C-184.82066452 383.83859924 -184.35226654 382.88422974 -183.86967468 381.90093994 C-180.52169893 375.0764363 -177.20503162 368.23845521 -173.9375 361.375 C-173.525 360.50866943 -173.1125 359.64233887 -172.6875 358.74975586 C-171.87695161 357.04621676 -171.0667244 355.34252481 -170.25683594 353.63867188 C-167.87042604 348.62850906 -165.46536359 343.62728671 -163.0625 338.625 C-162.05076556 336.5182367 -161.0390468 334.41146587 -160.02734375 332.3046875 C-159.5257373 331.26022461 -159.02413086 330.21576172 -158.50732422 329.13964844 C-157.02614357 326.05445518 -155.54608309 322.96872724 -154.06640625 319.8828125 C-148.40807909 308.08411767 -142.73088416 296.29470093 -137.03765869 284.51281738 C-132.73108908 275.59945845 -128.44773185 266.67531512 -124.18334961 257.74169922 C-120.17828922 249.35786039 -116.13747368 240.9914415 -112.09423828 232.62597656 C-108.21182451 224.59238269 -104.34363327 216.55224062 -100.5 208.5 C-96.05859918 199.19546298 -91.58083939 189.90876636 -87.09423828 180.62597656 C-83.21182451 172.59238269 -79.34363327 164.55224062 -75.5 156.5 C-71.05859918 147.19546298 -66.58083939 137.90876636 -62.09423828 128.62597656 C-58.21182451 120.59238269 -54.34363327 112.55224062 -50.5 104.5 C-46.05859918 95.19546298 -41.58083939 85.90876636 -37.09423828 76.62597656 C-33.21182421 68.59238206 -29.34377911 60.55217139 -25.5 52.5 C-21.55170259 44.23198316 -17.58695584 35.97202306 -13.60693359 27.71923828 C-13.00621213 26.47345108 -12.40577652 25.22752599 -11.80566406 23.98144531 C-7.93843423 15.95288303 -4.00818793 7.95915496 0 0 Z " fill="#00519B" transform="translate(2011,0)"/>
<path d="M0 0 C3 1 3 1 4.43530273 3.37890625 C4.92973877 4.42949219 5.4241748 5.48007813 5.93359375 6.5625 C6.49385254 7.7390918 7.05411133 8.91568359 7.63134766 10.12792969 C8.23353317 11.41855694 8.83558047 12.70924868 9.4375 14 C10.06457356 15.32502694 10.69267794 16.6495665 11.32177734 17.97363281 C12.6055982 20.67873016 13.8842393 23.38617969 15.15869141 26.09570312 C17.78011056 31.66346989 20.45471043 37.20555479 23.125 42.75 C24.10718901 44.79667437 25.0889605 46.84354916 26.0703125 48.890625 C29.04511762 55.094594 32.02236108 61.2973907 35 67.5 C37.97763892 73.7026093 40.95488238 79.905406 43.9296875 86.109375 C49.58949204 97.91058952 55.2678493 109.70267802 60.96234131 121.48718262 C65.26891092 130.40054155 69.55226815 139.32468488 73.81665039 148.25830078 C77.52264029 156.01609193 81.25874641 163.75917958 85 171.5 C90.1253948 182.10524386 95.22381979 192.72303592 100.30078125 203.3515625 C107.81454993 219.08086009 115.37627787 234.78696862 122.96005249 250.48260498 C127.76454358 260.42739815 132.54035331 270.38561181 137.30078125 280.3515625 C144.8151959 296.08221236 152.37717632 311.7898704 159.96206665 327.4866333 C164.26872935 336.40017467 168.55217994 345.32450009 172.81665039 354.25830078 C176.22450406 361.39199994 179.65714318 368.51356886 183.09725952 375.63174438 C184.87502532 379.31089804 186.65093615 382.99094758 188.42695618 386.67094421 C189.83185491 389.58162582 191.23798031 392.49170362 192.64599609 395.40087891 C194.16309289 398.53652396 195.67580585 401.67424757 197.1875 404.8125 C197.63287109 405.7303125 198.07824219 406.648125 198.53710938 407.59375 C200.9690471 412.65429849 203.11405058 417.71074119 205 423 C199.6955478 421.35890201 195.67967447 417.9885597 191.3125 414.6875 C189.60085179 413.40936392 187.88859803 412.13203843 186.17578125 410.85546875 C184.87761475 409.88552979 184.87761475 409.88552979 183.55322266 408.89599609 C179.73069812 406.05742987 175.86719676 403.27722956 172 400.5 C165.80293151 396.04052892 159.6402296 391.53739614 153.5 387 C145.12062325 380.80974505 136.68892429 374.69525542 128.23388672 368.60888672 C123.73476831 365.36853805 119.24175881 362.11972298 114.74755859 358.87255859 C111.012055 356.17401978 107.2751852 353.47742047 103.53515625 350.78515625 C95.02079319 344.65243321 86.54783798 338.46767211 78.10791016 332.23291016 C69.78497251 326.09080366 61.39567785 320.04209317 53 314 C42.99449602 306.79936792 33.02311522 299.55749214 23.10791016 292.23291016 C15.5233116 286.63567826 7.8841167 281.11591373 0.23388672 275.60888672 C-4.26523169 272.36853805 -8.75824119 269.11972298 -13.25244141 265.87255859 C-16.987945 263.17401978 -20.7248148 260.47742047 -24.46484375 257.78515625 C-32.97920681 251.65243321 -41.45216202 245.46767211 -49.89208984 239.23291016 C-57.45640352 233.65064797 -65.0748814 228.1452171 -72.70458984 222.65283203 C-76.76367473 219.73004914 -80.81935193 216.8025489 -84.875 213.875 C-86.00820679 213.05793579 -86.00820679 213.05793579 -87.16430664 212.22436523 C-87.87063232 211.71462158 -88.57695801 211.20487793 -89.3046875 210.6796875 C-89.92327637 210.23351074 -90.54186523 209.78733398 -91.17919922 209.32763672 C-93.13314906 207.90291437 -95.06845992 206.45491937 -97 205 C-96.36600807 200.75393547 -94.89588768 197.38286019 -93.0078125 193.5390625 C-92.70622726 192.92067505 -92.40464203 192.3022876 -92.09391785 191.66516113 C-91.10945698 189.64919345 -90.11717636 187.63717992 -89.125 185.625 C-88.43708217 184.21891091 -87.74983237 182.8124948 -87.06323242 181.40576172 C-85.68548135 178.5833814 -84.30558467 175.76206672 -82.92431641 172.94140625 C-80.35390304 167.68508732 -77.82934497 162.4071399 -75.3125 157.125 C-74.42980806 155.27598411 -73.54699563 153.42702573 -72.6640625 151.578125 C-72.22868164 150.66611328 -71.79330078 149.75410156 -71.34472656 148.81445312 C-64.28041125 134.02915412 -57.16727839 119.26738868 -50.03793335 104.5133667 C-45.73127065 95.59982533 -41.44782006 86.67549991 -37.18334961 77.74169922 C-33.4773593 69.98390723 -29.74113083 62.24088031 -26 54.5 C-17.24231713 36.37627205 -8.53899639 18.22794359 0 0 Z " fill="#00519B" transform="translate(548,0)"/>
<path d="M0 0 C5.11285307 2.78942562 9.7014673 5.88942676 14.3125 9.4375 C20.11509387 13.84493841 25.96063808 18.18111756 31.875 22.4375 C32.62507324 22.97761719 33.37514648 23.51773437 34.14794922 24.07421875 C36.43128807 25.71709106 38.71561979 27.35857611 41 29 C51.00696582 36.19856631 60.97691537 43.44253046 70.89208984 50.76708984 C79.21502749 56.90919634 87.60432215 62.95790683 96 69 C106.00120381 76.19753739 115.9698387 83.43429581 125.87890625 90.75830078 C131.37194487 94.8137082 136.89595813 98.82369183 142.4375 102.8125 C145.2931033 104.87301741 148.14696564 106.93592749 151 109 C151.64243652 109.46374023 152.28487305 109.92748047 152.94677734 110.40527344 C154.67811062 111.65901333 156.40267304 112.92142898 158.125 114.1875 C159.07632812 114.88230469 160.02765625 115.57710937 161.0078125 116.29296875 C161.66523437 116.85628906 162.32265625 117.41960937 163 118 C163 118.66 163 119.32 163 120 C161.63330078 121.21411133 161.63330078 121.21411133 159.6953125 122.58203125 C158.97601562 123.09507813 158.25671875 123.608125 157.515625 124.13671875 C156.72671875 124.68972656 155.9378125 125.24273438 155.125 125.8125 C153.4608145 126.9959208 151.79675542 128.17951939 150.1328125 129.36328125 C149.27719727 129.96865723 148.42158203 130.5740332 147.54003906 131.19775391 C143.67513688 133.94003648 139.83805007 136.72032774 136 139.5 C134.49887454 140.58487985 132.99757181 141.66951445 131.49609375 142.75390625 C130.75343262 143.29031738 130.01077148 143.82672852 129.24560547 144.37939453 C127.00994555 145.99282251 124.77275484 147.60410578 122.53515625 149.21484375 C114.82537027 154.76804624 107.14242369 160.35437205 99.5 166 C89.64592179 173.27942622 79.71425666 180.44830324 69.77050781 187.60449219 C60.51144944 194.27020379 51.29017269 200.98259678 42.11450195 207.76269531 C35.9476926 212.31458372 29.75008246 216.82204369 23.51904297 221.28564453 C19.86655774 223.90638177 16.24769974 226.55803454 12.6796875 229.29296875 C11.65343262 230.07184448 11.65343262 230.07184448 10.60644531 230.86645508 C9.31903257 231.84660828 8.03920814 232.8368388 6.76855469 233.83862305 C2.51478161 237.06017761 2.51478161 237.06017761 0.04101562 236.77099609 C-2.17610548 235.93347595 -3.7894666 234.92254536 -5.6953125 233.515625 C-6.40163818 232.99943604 -7.10796387 232.48324707 -7.83569336 231.95141602 C-8.59116455 231.38994873 -9.34663574 230.82848145 -10.125 230.25 C-11.75376288 229.05579402 -13.38267317 227.86178907 -15.01171875 226.66796875 C-15.8423584 226.05614746 -16.67299805 225.44432617 -17.52880859 224.81396484 C-20.58225126 222.57260157 -23.65534365 220.35946975 -26.73095703 218.14868164 C-33.77395346 213.08579739 -40.77404682 207.96730344 -47.75 202.8125 C-54.26868079 197.99605784 -60.8244828 193.23977065 -67.4296875 188.54296875 C-78.66515843 180.55154225 -89.80144428 172.42577605 -100.89111328 164.23364258 C-108.47602148 158.63614485 -116.11555308 153.11615144 -123.76611328 147.60888672 C-127.51359783 144.90987872 -131.25655939 142.20461246 -135 139.5 C-136.476541 138.43356398 -137.95310358 137.36715784 -139.4296875 136.30078125 C-146.953125 130.8671875 -154.4765625 125.43359375 -162 120 C-160.17274026 115.91801701 -157.63122344 114.01851652 -154 111.5625 C-152.72213401 110.67392765 -151.44481658 109.78456603 -150.16796875 108.89453125 C-149.48911621 108.4248291 -148.81026367 107.95512695 -148.11083984 107.47119141 C-144.48022544 104.94076319 -140.89755387 102.34438503 -137.3125 99.75 C-136.55839844 99.20545166 -135.80429688 98.66090332 -135.02734375 98.09985352 C-128.6914207 93.51790917 -122.39799731 88.87951915 -116.10888672 84.23364258 C-107.04893979 77.54759825 -97.90963888 70.97263981 -88.77050781 64.39550781 C-80.31406964 58.3076125 -71.88111091 52.19131259 -63.5 46 C-55.12051542 39.80988881 -46.68892637 33.69525691 -38.23388672 27.60888672 C-34.48640217 24.90987872 -30.74344061 22.20461246 -27 19.5 C-25.523459 18.43356398 -24.04689642 17.36715784 -22.5703125 16.30078125 C-21.46091309 15.49954834 -21.46091309 15.49954834 -20.32910156 14.68212891 C-10.16455078 7.34106445 -10.16455078 7.34106445 0 0 Z " fill="#00519B" transform="translate(1280,1277)"/>
<path d="M0 0 C4.08103459 1.67729931 7.37307148 4.21883422 10.88671875 6.859375 C12.50504133 8.05230993 14.12353567 9.24501186 15.7421875 10.4375 C16.56638184 11.04916016 17.39057617 11.66082031 18.23974609 12.29101562 C22.03547805 15.0973102 25.86785078 17.85205315 29.69921875 20.609375 C31.20070112 21.69376083 32.70200274 22.77839698 34.203125 23.86328125 C37.18830983 26.01942799 40.17543263 28.17285004 43.1640625 30.32421875 C51.67842556 36.45694179 60.15138077 42.64170289 68.59130859 48.87646484 C76.91424624 55.01857134 85.3035409 61.06728183 93.69921875 67.109375 C102.89981386 73.73074065 112.08159732 80.37402774 121.19921875 87.109375 C127.4472484 91.72467328 133.71400439 96.31207259 140.01171875 100.859375 C140.7476123 101.39151611 141.48350586 101.92365723 142.24169922 102.47192383 C145.78937487 105.03193481 149.34922772 107.57137584 152.9375 110.07421875 C153.59516357 110.53538086 154.25282715 110.99654297 154.93041992 111.47167969 C156.162203 112.33362613 157.39786493 113.19006471 158.63793945 114.04003906 C160.02750642 115.0139627 161.36938918 116.05534609 162.69921875 117.109375 C162.69921875 117.769375 162.69921875 118.429375 162.69921875 119.109375 C161.33251953 120.32348633 161.33251953 120.32348633 159.39453125 121.69140625 C158.67531494 122.20437256 157.95609863 122.71733887 157.21508789 123.24584961 C156.42610107 123.79893799 155.63711426 124.35202637 154.82421875 124.921875 C153.1587562 126.10663313 151.49339432 127.29153278 149.828125 128.4765625 C148.97234863 129.08209961 148.11657227 129.68763672 147.23486328 130.31152344 C143.39445284 133.03449498 139.57726734 135.78922391 135.76171875 138.546875 C135.02324707 139.07966064 134.28477539 139.61244629 133.52392578 140.16137695 C128.05758017 144.11073779 122.62342476 148.10239367 117.19921875 152.109375 C107.34514054 159.38880122 97.41347541 166.55767824 87.46972656 173.71386719 C79.01328839 179.8017625 70.58032966 185.91806241 62.19921875 192.109375 C53.81973417 198.29948619 45.38814512 204.41411809 36.93310547 210.50048828 C33.18562106 213.19949618 29.44260674 215.90468994 25.69921875 218.609375 C21.21311496 221.85068953 16.72617044 225.09079454 12.234375 228.32421875 C4.44005237 233.93841247 -3.32487776 239.58881577 -11.05078125 245.296875 C-16.80812959 249.54455267 -22.56568624 253.79171654 -28.36328125 257.984375 C-28.94110352 258.4074292 -29.51892578 258.8304834 -30.11425781 259.26635742 C-34.069445 262.109375 -34.069445 262.109375 -36.30078125 262.109375 C-39.47115327 252.48559261 -42.63756189 242.86051045 -45.80078125 233.234375 C-46.04004208 232.50628002 -46.2793029 231.77818504 -46.52581406 231.02802658 C-53.1136819 210.97709462 -59.63674439 190.9081002 -66.02786255 170.79342651 C-70.4701693 156.82305807 -75.0031995 142.88445442 -79.58984375 128.9609375 C-79.86368834 128.12943365 -80.13753292 127.2979298 -80.41967583 126.44122887 C-83.17268795 118.08321848 -85.9296971 109.72654511 -88.6954155 101.37273026 C-89.72669385 98.25618813 -90.75576076 95.13891852 -91.78442001 92.02151108 C-92.26759378 90.55923495 -92.7518501 89.09731604 -93.23724747 87.63577652 C-93.90681295 85.61961704 -94.57280768 83.60231035 -95.23803711 81.5847168 C-95.61391464 80.44979294 -95.98979218 79.31486908 -96.37705994 78.14555359 C-97.19059437 75.47154814 -97.81381567 72.85902148 -98.30078125 70.109375 C-96.47274836 68.78912902 -94.64471028 67.46889023 -92.81665039 66.14868164 C-91.19856357 64.98001748 -89.58056478 63.81123144 -87.96264648 62.64233398 C-83.89896731 59.70669298 -79.83425811 56.77252216 -75.765625 53.84375 C-68.07920275 48.30758436 -60.41994663 42.73782152 -52.80078125 37.109375 C-42.87240511 29.77506326 -32.86678795 22.55063996 -22.84570312 15.34375 C-21.1911193 14.15358806 -19.53689881 12.96292083 -17.88305664 11.77172852 C-16.33100589 10.65385324 -14.77815771 9.53708395 -13.22436523 8.42163086 C-12.52126221 7.91510986 -11.81815918 7.40858887 -11.09375 6.88671875 C-10.43294434 6.41347168 -9.77213867 5.94022461 -9.09130859 5.45263672 C-7.09333128 3.99569094 -7.09333128 3.99569094 -4.6015625 1.67578125 C-2.30078125 0.109375 -2.30078125 0.109375 0 0 Z " fill="#00519B" transform="translate(1507.30078125,1112.890625)"/>
<path d="M0 0 C2.02612305 1.19238281 2.02612305 1.19238281 4.01171875 2.703125 C4.76001953 3.26451172 5.50832031 3.82589844 6.27929688 4.40429688 C7.47135742 5.31791992 7.47135742 5.31791992 8.6875 6.25 C10.39909312 7.53731831 12.11134819 8.8237569 13.82421875 10.109375 C15.12238525 11.08874023 15.12238525 11.08874023 16.44677734 12.08789062 C20.26062669 14.94408379 24.128121 17.72327161 28 20.5 C34.19738741 24.95902126 40.35977677 29.46260857 46.5 34 C57.28721145 41.96904007 68.16516557 49.8098614 79.05859375 57.6328125 C79.88544678 58.22763428 80.7122998 58.82245605 81.56420898 59.43530273 C83.15501159 60.57965377 84.74692385 61.72246424 86.34008789 62.86352539 C87.05285889 63.3764917 87.76562988 63.88945801 88.5 64.41796875 C89.1290625 64.86938232 89.758125 65.3207959 90.40625 65.78588867 C92 67 92 67 94 69 C93.67782822 75.6296295 91.28117796 81.83863794 89.23046875 88.1015625 C88.64846458 89.90157211 88.64846458 89.90157211 88.05470276 91.73794556 C86.99421433 95.01691292 85.92650618 98.29348818 84.85740662 101.56965637 C83.95569292 104.33620839 83.0584064 107.10418743 82.16118813 109.87220001 C75.32948695 130.94821661 68.42136322 151.99935511 61.50180054 173.04666138 C54.91198895 193.09140625 48.42312875 213.16653104 42.02246094 233.27246094 C41.41086087 235.19337644 40.79920945 237.11427558 40.1875 239.03515625 C39.76165619 240.37252335 39.76165619 240.37252335 39.32720947 241.73690796 C37.27264266 248.17661669 35.17170772 254.59868917 33 261 C29.61014395 259.75672163 26.87003997 258.36877594 23.98828125 256.19921875 C23.2398999 255.64097412 22.49151855 255.08272949 21.72045898 254.50756836 C20.92583252 253.9069458 20.13120605 253.30632324 19.3125 252.6875 C17.60213186 251.41069528 15.89118059 250.13467138 14.1796875 248.859375 C13.3144043 248.21291016 12.44912109 247.56644531 11.55761719 246.90039062 C7.71094977 244.04219483 3.82715188 241.23677968 -0.0625 238.4375 C-0.80081055 237.90527832 -1.53912109 237.37305664 -2.29980469 236.82470703 C-4.53258248 235.21560747 -6.7661584 233.60762232 -9 232 C-19.00550398 224.79936792 -28.97688478 217.55749214 -38.89208984 210.23291016 C-47.21502749 204.09080366 -55.60432215 198.04209317 -64 192 C-74.00550398 184.79936792 -83.97688478 177.55749214 -93.89208984 170.23291016 C-101.4766884 164.63567826 -109.1158833 159.11591373 -116.76611328 153.60888672 C-120.51359781 150.90987874 -124.25656955 148.20462647 -128 145.5 C-132.58153779 142.19072232 -137.16340582 138.88190357 -141.74609375 135.57421875 C-149.84133492 129.73062853 -157.9324739 123.8818307 -166 118 C-164.55966506 113.67899518 -161.25329273 112.14178001 -157.625 109.6875 C-156.06253491 108.60860366 -154.50138436 107.52780166 -152.94140625 106.4453125 C-151.7196167 105.59888184 -151.7196167 105.59888184 -150.47314453 104.73535156 C-146.45170356 101.91359417 -142.50758108 98.989614 -138.5625 96.0625 C-128.69204081 88.75580949 -118.73808741 81.56884696 -108.77050781 74.39550781 C-100.22947007 68.24670821 -91.71408236 62.06694003 -83.25 55.8125 C-76.73131921 50.99605784 -70.1755172 46.23977065 -63.5703125 41.54296875 C-53.9466925 34.69799959 -44.38048901 27.77205782 -34.88012695 20.75708008 C-33.30058902 19.59101848 -31.71970735 18.42677478 -30.13745117 17.2644043 C-26.06099728 14.26905477 -22.00559362 11.25031172 -17.9765625 8.19140625 C-16.35955449 6.9815309 -14.74237317 5.77188715 -13.125 4.5625 C-12.38185547 3.98822266 -11.63871094 3.41394531 -10.87304688 2.82226562 C-10.17501953 2.30470703 -9.47699219 1.78714844 -8.7578125 1.25390625 C-8.1508252 0.79314697 -7.54383789 0.3323877 -6.91845703 -0.14233398 C-4.22899052 -1.34468774 -2.77122477 -0.89200898 0 0 Z " fill="#00519B" transform="translate(1057,1114)"/>
<path d="M0 0 C36.5371875 -0.0928125 36.5371875 -0.0928125 73.8125 -0.1875 C81.47057861 -0.21481201 89.12865723 -0.24212402 97.01879883 -0.27026367 C106.45446777 -0.28381348 106.45446777 -0.28381348 110.88798523 -0.28633118 C113.9488849 -0.28909794 117.00962449 -0.30022577 120.07048035 -0.31672668 C174.35532223 -0.59619413 174.35532223 -0.59619413 191 15 C191.61359375 15.57234375 192.2271875 16.1446875 192.859375 16.734375 C204.28043336 28.55971861 208.52084433 44.73338669 208.35180664 60.76171875 C207.90269049 74.51182147 203.03879416 87.82126821 193.4609375 97.89453125 C185.47865681 104.72381584 177.27893558 108.3429848 167 110 C174.31737755 122.32307554 181.78938947 134.52999177 189.48681641 146.61914062 C191.03178164 149.05000557 192.56975707 151.48515467 194.10546875 153.921875 C194.6169043 154.73333984 195.12833984 155.54480469 195.65527344 156.38085938 C196.66520526 157.98361925 197.67497474 159.58648142 198.68457031 161.18945312 C201.01754191 164.8868173 203.36449033 168.57318708 205.75390625 172.234375 C206.17712158 172.8843042 206.60033691 173.5342334 207.03637695 174.20385742 C207.82381717 175.40980841 208.61510123 176.61326154 209.41088867 177.8137207 C212 181.77956727 212 181.77956727 212 184 C187.58 184 163.16 184 138 184 C133.38 175.75 128.76 167.5 124 159 C119.01880803 150.1867735 119.01880803 150.1867735 113.93359375 141.43359375 C111.90513241 137.88045116 110.40215874 134.49306004 109.16015625 130.59765625 C106.60525836 123.18655374 106.60525836 123.18655374 101 118 C89.76233453 115.45628491 78.4768342 116.56195289 67 117 C67 139.11 67 161.22 67 184 C44.89 184 22.78 184 0 184 C0 123.28 0 62.56 0 0 Z M67 42 C67 52.89 67 63.78 67 75 C74.23564015 75.06316272 81.47026368 75.12323712 88.70594025 75.15525055 C92.07646151 75.170998 95.4467511 75.19198977 98.81713867 75.22631836 C102.69716402 75.26296983 106.57686353 75.27978808 110.45703125 75.29296875 C111.64706253 75.30845261 112.83709381 75.32393646 114.06318665 75.33988953 C121.73505702 75.34141396 130.70689236 75.34152511 137.03327942 70.41740417 C140.32437896 67.09904576 141.92320572 63.71940951 142.16796875 59.05078125 C141.75328826 53.98782177 140.21657407 50.21657407 136.625 46.625 C130.44046294 42.79647706 124.38751681 41.87016399 117.17822266 41.88647461 C115.49715927 41.88658791 115.49715927 41.88658791 113.78213501 41.88670349 C112.58817108 41.89186478 111.39420715 41.89702606 110.1640625 41.90234375 C108.31232925 41.90446617 108.31232925 41.90446617 106.42318726 41.90663147 C102.49043325 41.91221728 98.55773672 41.92476725 94.625 41.9375 C91.95442792 41.94308088 89.28385637 41.94707942 86.61328125 41.95117188 C80.07548102 41.96133005 73.53780465 41.98090842 67 42 Z " fill="#00519B" transform="translate(1072,1806)"/>
<path d="M0 0 C24.255 -0.04125 48.51 -0.0825 73.5 -0.125 C84.94977539 -0.15231201 84.94977539 -0.15231201 96.63085938 -0.18017578 C106.01660156 -0.18920898 106.01660156 -0.18920898 110.42297363 -0.19088745 C113.47313399 -0.19273621 116.52322336 -0.20017252 119.57336426 -0.21115112 C123.48367032 -0.22503578 127.39387557 -0.22895204 131.30420399 -0.22614455 C132.72699965 -0.22673019 134.14979944 -0.23059636 135.57257366 -0.23843026 C155.58764297 -0.3433694 175.97633124 1.40200813 191.25 15.75 C204.11075269 29.36269186 207.66549377 45.65510971 207.30859375 63.75390625 C206.71231168 77.51292949 201.12617892 89.96336155 191.01171875 99.44140625 C184.14623326 104.76049113 174.81182466 110 166 110 C173.60359672 122.4284407 181.21641909 134.84763048 189.0625 147.125 C194.18862079 155.1529509 199.30096693 163.18901392 204.375 171.25 C205.03636963 172.2930127 205.69773926 173.33602539 206.37915039 174.41064453 C207.28588501 175.85479736 207.28588501 175.85479736 208.2109375 177.328125 C208.75024902 178.1830957 209.28956055 179.03806641 209.84521484 179.91894531 C211 182 211 182 211 184 C186.58 184 162.16 184 137 184 C133.04 176.74 129.08 169.48 125 162 C120.97943401 154.7766931 120.97943401 154.7766931 116.83276367 147.62646484 C114.00440296 142.81006825 111.60754698 138.1774963 109.70703125 132.91796875 C106.39324819 124.33970976 106.39324819 124.33970976 100 118 C88.76012854 115.10339057 77.55990623 116.42200469 66 117 C66 139.11 66 161.22 66 184 C44.22 184 22.44 184 0 184 C0 123.28 0 62.56 0 0 Z M66 42 C66 52.89 66 63.78 66 75 C73.26995707 75.0420634 80.53946746 75.08211998 87.80944061 75.10350037 C91.19568649 75.1140149 94.58183049 75.12804097 97.96801758 75.15087891 C101.86282011 75.17525279 105.75747862 75.18651203 109.65234375 75.1953125 C111.45287453 75.21079636 111.45287453 75.21079636 113.28977966 75.22659302 C122.20547633 75.22777392 130.99848902 75.16799777 138 69 C140.69363853 64.2412386 141.59316755 60.43736917 141 55 C139.23501351 50.09725974 136.51839187 46.61945607 132 44 C124.79034856 41.4364962 117.19595132 41.73981544 109.65234375 41.8046875 C107.7736837 41.80893234 107.7736837 41.80893234 105.85707092 41.81326294 C102.55761894 41.82250846 99.25836928 41.84041839 95.95898438 41.8626709 C92.58010351 41.88327881 89.20119194 41.89240661 85.82226562 41.90234375 C79.21468456 41.92260619 72.60759889 41.96176896 66 42 Z " fill="#00519B" transform="translate(1864,1806)"/>
<path d="M0 0 C0.83015625 0.73734375 1.6603125 1.4746875 2.515625 2.234375 C19.60387321 18.27426443 29.21609092 41.69525778 30.2578125 64.94140625 C31.03815988 91.93949279 23.83250597 117.50060744 5.08642578 137.5012207 C-13.28216721 156.25660075 -37.32990206 165.41867112 -63 169 C-64.04208618 169.14574463 -64.04208618 169.14574463 -65.10522461 169.29443359 C-102.75946691 173.79082398 -147.33935927 171.1692895 -178.7109375 147.82421875 C-198.69818643 131.89581388 -210.86752986 111.69701163 -213.81469727 86.13427734 C-216.04984364 60.39033851 -211.31810704 33.74053777 -195.25 12.875 C-193.85579426 11.23068865 -192.43793827 9.60620764 -191 8 C-190.21109375 7.10539062 -189.4221875 6.21078125 -188.609375 5.2890625 C-169.76770597 -14.85008673 -142.78614084 -23.18040623 -116 -26 C-115.01902344 -26.11085938 -114.03804687 -26.22171875 -113.02734375 -26.3359375 C-75.34331295 -29.93415463 -29.339989 -26.58321151 0 0 Z M-133 32 C-135.33492624 35.19173394 -137.2153363 38.47571144 -139 42 C-139.37769531 42.68320313 -139.75539063 43.36640625 -140.14453125 44.0703125 C-144.79717922 53.23620325 -147.1159603 65.76504984 -146 76 C-145.86851563 77.24007813 -145.73703125 78.48015625 -145.6015625 79.7578125 C-143.7632646 93.95164078 -138.62084158 107.09599101 -127.8125 116.8828125 C-112.86159033 128.13752506 -96.11290537 130.38811126 -78 128 C-66.50594119 125.79772627 -56.41730961 119.83397487 -49.4375 110.4375 C-38.64665692 94.28696665 -35.80831506 75.1070348 -39.38500977 56.21655273 C-42.19501229 43.53609584 -48.57345424 31.93324134 -59 24 C-82.24973229 9.22476363 -114.0526243 11.38079703 -133 32 Z " fill="#00519B" transform="translate(1798,1826)"/>
<path d="M0 0 C64.02 0 128.04 0 194 0 C194 13.86 194 27.72 194 42 C152.09 42 110.18 42 67 42 C67 51.57 67 61.14 67 71 C105.61 71 144.22 71 184 71 C184 84.86 184 98.72 184 113 C145.39 113 106.78 113 67 113 C67 122.24 67 131.48 67 141 C109.57 141 152.14 141 196 141 C196 155.19 196 169.38 196 184 C131.32 184 66.64 184 0 184 C0 123.28 0 62.56 0 0 Z " fill="#00529A" transform="translate(2364,1806)"/>
<path d="M0 0 C21.78 0 43.56 0 66 0 C66.02578125 8.29511719 66.0515625 16.59023437 66.078125 25.13671875 C66.10651411 31.08079554 66.1373855 37.02481911 66.1718235 42.96885967 C66.21603425 50.65640497 66.25451123 58.343834 66.27099609 66.03149414 C66.28547711 72.77493307 66.32072002 79.51801561 66.36830902 86.26130104 C66.38308146 88.82669896 66.39103862 91.39214598 66.39188385 93.95758629 C65.71448752 115.86564225 65.71448752 115.86564225 74.3359375 135.4453125 C84.75772085 145.18209601 97.09934383 148 111 148 C123.83483762 147.06549533 134.22641806 143.70847182 143 134 C152.86031735 121.27331132 150.47233982 99.40379771 150.51171875 84.375 C150.52859608 81.93163163 150.54675034 79.48827178 150.56611633 77.04492188 C150.61329083 70.66649032 150.6433098 64.28809332 150.66955566 57.9095459 C150.70481181 50.22826265 150.76173053 42.54711204 150.81494904 34.86593628 C150.89308043 23.24397522 150.94397551 11.62218321 151 0 C172.78 0 194.56 0 217 0 C217.08032734 27.97622635 217.08032734 27.97622635 217.10050774 41.92165852 C217.111536 49.42558171 217.12547556 56.92945982 217.15087891 64.43334961 C217.17316967 71.02103175 217.18460694 77.60868353 217.18975449 84.1964016 C217.19341755 86.69547478 217.20056935 89.19454565 217.21146011 91.69359779 C217.44075582 146.54732194 217.44075582 146.54732194 199.1875 165.94140625 C175.08422253 188.62431201 139.45252908 190.24068982 108.25 190.3125 C107.34755554 190.31626648 106.44511108 190.32003296 105.51531982 190.32391357 C89.33696406 190.3581064 72.9040298 189.75588021 57.0625 186.1875 C56.28511475 186.01645752 55.50772949 185.84541504 54.70678711 185.66918945 C36.90685697 181.57000108 19.48123408 173.15182051 9.125 157.5625 C1.70454191 145.0262908 -0.31365616 133.18081738 -0.22705078 118.74755859 C-0.22734283 117.45862701 -0.22763489 116.16969543 -0.22793579 114.84170532 C-0.22850517 111.33821984 -0.21681879 107.83487376 -0.20278788 104.33142042 C-0.19021068 100.65858655 -0.18910454 96.98574881 -0.18673706 93.31289673 C-0.1805427 86.37166964 -0.16415981 79.43050621 -0.14403808 72.48930705 C-0.1174152 63.09989083 -0.10668991 53.71045698 -0.09503365 44.3210125 C-0.07627753 29.54729406 -0.03641835 14.77370991 0 0 Z " fill="#00519B" transform="translate(0,1806)"/>
<path d="M0 0 C17.42152504 14.94004497 29.27520919 35.68384125 32.1875 58.625 C33.80701608 85.57093108 28.21650372 109.76862059 10.1394043 130.4699707 C-0.4080534 142.08496234 -12.59439236 150.62692505 -27.375 155.9375 C-28.04668213 156.18000488 -28.71836426 156.42250977 -29.41040039 156.67236328 C-50.9295909 163.99287165 -76.21100125 162.54957609 -96.890625 153.15234375 C-120.38228811 140.87261076 -137.37327908 122.04749702 -145.58984375 96.6328125 C-153.05829754 72.47642038 -148.84947413 47.39554168 -137.6875 25.125 C-125.83229085 3.81139572 -105.65515343 -10.84284713 -82.4375 -17.6875 C-53.67136544 -25.6706076 -23.22324544 -18.33243643 0 0 Z " fill="#00519B" transform="translate(1338.8125,1071.375)"/>
<path d="M0 0 C8.47330674 7.89759426 13.38176281 17.05736337 15.66796875 28.39453125 C15.92215576 29.6369458 16.17634277 30.87936035 16.43823242 32.15942383 C16.62361572 33.09681396 16.80899902 34.0342041 17 35 C9.69032779 35.43256133 2.38032303 35.85913589 -4.92993164 36.28173828 C-7.4117811 36.42589873 -9.89355417 36.57138116 -12.37524414 36.71826172 C-15.96220466 36.93032011 -19.54942182 37.13747001 -23.13671875 37.34375 C-24.22893234 37.40937134 -25.32114594 37.47499268 -26.44645691 37.54260254 C-33.97150998 37.96894346 -41.46361497 38.07270428 -49 38 C-49.25523437 37.42693115 -49.51046875 36.8538623 -49.7734375 36.26342773 C-52.19086205 30.9385078 -54.46008015 27.50548315 -60.0390625 25.1328125 C-72.55455053 20.61691476 -88.26094084 20.16707932 -100.5625 25.5625 C-101.366875 26.036875 -102.17125 26.51125 -103 27 C-104.485 27.495 -104.485 27.495 -106 28 C-106.93742541 30.81227622 -107.13470844 32.58746844 -107.125 35.5 C-107.12757813 36.2734375 -107.13015625 37.046875 -107.1328125 37.84375 C-107.08145813 40.18447017 -107.08145813 40.18447017 -106 43 C-103.81647861 44.11534281 -103.81647861 44.11534281 -101 45 C-99.86433594 45.42796875 -98.72867188 45.8559375 -97.55859375 46.296875 C-83.68586069 51.27031334 -69.41780855 54.08147682 -55 57 C-1.8921764 67.75034489 -1.8921764 67.75034489 12 85 C16.65802561 92.22331508 19.18273984 99.46417166 20 108 C20.07089844 108.72445313 20.14179687 109.44890625 20.21484375 110.1953125 C20.88715568 124.77103512 15.12213555 139.39045403 5.75 150.375 C-15.83314112 172.61438528 -47.43110546 176.85597169 -76.98823547 177.32514954 C-93.14516899 177.50346163 -109.14027863 177.43347089 -125 174 C-125.67240723 173.86609863 -126.34481445 173.73219727 -127.03759766 173.59423828 C-144.95821912 169.95183555 -161.82789395 161.17492423 -172.25 145.8359375 C-176.68438423 138.64985948 -179.19171521 131.91154526 -180.63671875 123.63671875 C-180.7699353 122.89981812 -180.90315186 122.16291748 -181.04040527 121.40368652 C-181.36515508 119.60333199 -181.68326338 117.80178157 -182 116 C-159.99103932 115.19366957 -138.02328681 114.86051704 -116 115 C-115.74750488 115.53979492 -115.49500977 116.07958984 -115.23486328 116.63574219 C-111.33513456 124.74292835 -106.53762226 129.08628148 -97.984375 132.18359375 C-83.61857042 136.11350626 -66.48650264 137.03643616 -53 130 C-48.47092975 126.3027998 -46.2685499 123.41694911 -45.625 117.625 C-46.0922587 113.10816591 -46.8929281 111.32900561 -50 108 C-57.02612129 104.32066845 -64.72840652 102.74668628 -72.4375 101.1875 C-73.6325415 100.93669678 -74.82758301 100.68589355 -76.05883789 100.42749023 C-82.98509456 98.9851663 -89.92454672 97.6249659 -96.875 96.3046875 C-140.84288532 87.91664941 -140.84288532 87.91664941 -155 77 C-156.60875 75.8553125 -156.60875 75.8553125 -158.25 74.6875 C-167.71864526 65.43405122 -172.40742697 54.49079089 -173.03125 41.328125 C-172.88288458 25.52720815 -167.02021228 11.92608833 -155.75390625 0.77734375 C-141.37564308 -11.47605294 -122.48095288 -16.98048037 -104 -19 C-103.03707031 -19.11085938 -102.07414062 -19.22171875 -101.08203125 -19.3359375 C-69.06660578 -22.40080359 -25.59216992 -22.34171747 0 0 Z " fill="#00519B" transform="translate(502,1818)"/>
<path d="M0 0 C8.51677023 8.20577214 14.74396064 18.45365794 18.16943359 29.80053711 C18.16943359 30.79053711 18.16943359 31.78053711 18.16943359 32.80053711 C-2.06787474 37.07158377 -22.41878967 40.49139926 -42.83056641 43.80053711 C-43.62285645 42.56968384 -43.62285645 42.56968384 -44.43115234 41.31396484 C-45.13530273 40.23574463 -45.83945313 39.15752441 -46.56494141 38.04663086 C-47.25813477 36.97856201 -47.95132813 35.91049316 -48.66552734 34.81005859 C-55.4175282 25.42441193 -66.19343238 20.80935778 -77.26806641 18.48803711 C-92.33605947 16.27088956 -108.88144193 18.17510334 -121.83056641 26.80053711 C-134.08213798 36.18121803 -140.51357644 47.19283947 -143.08056641 62.36303711 C-145.28089745 79.23224181 -142.60789722 95.90162285 -132.70556641 109.98803711 C-124.50710274 120.44074283 -113.52887476 126.2524206 -100.50634766 128.48022461 C-84.21264832 130.43071125 -68.38670066 126.58412472 -54.74853516 117.39819336 C-48.58090271 112.54739747 -44.65165085 106.02708923 -41.83056641 98.80053711 C-36.21527026 99.33292856 -30.60003993 99.86600789 -24.98486328 100.3996582 C-23.08448954 100.58017454 -21.18409954 100.76051991 -19.28369141 100.94067383 C-14.65893651 101.3791437 -10.03452328 101.82069117 -5.41064453 102.26831055 C-1.62433284 102.63375572 2.16319681 102.97796259 5.95263672 103.30932617 C7.78011611 103.47560767 9.60759028 103.6419465 11.43505859 103.80834961 C12.28614197 103.87875458 13.13722534 103.94915955 14.01409912 104.021698 C19.94347833 104.57458184 19.94347833 104.57458184 22.16943359 106.80053711 C13.65593038 130.49519872 0.41724825 147.86434247 -22.40014648 159.03295898 C-60.8043345 176.70423766 -112.58923294 177.47657124 -152.08056641 162.98803711 C-177.74224907 153.11046241 -196.79695336 136.03672706 -207.97314453 110.93676758 C-217.39054762 87.47370463 -216.3682932 58.06028375 -206.83056641 34.80053711 C-198.64738051 15.80854418 -185.97103103 1.06230128 -167.83056641 -9.19946289 C-166.80705078 -9.78469727 -165.78353516 -10.36993164 -164.72900391 -10.97290039 C-149.18802748 -19.30752241 -132.22907827 -23.12634327 -114.83056641 -25.19946289 C-113.75162109 -25.33094727 -112.67267578 -25.46243164 -111.56103516 -25.59790039 C-74.55535723 -29.18691765 -28.76957499 -26.31817669 0 0 Z " fill="#00519B" transform="translate(2314.83056640625,1824.199462890625)"/>
<path d="M0 0 C25.08 0 50.16 0 76 0 C93.17552595 38.93119216 93.17552595 38.93119216 98.22293091 50.65478516 C99.19602528 52.91496876 100.17097479 55.17434615 101.14624023 57.43359375 C102.4835521 60.5316946 103.82036564 63.63000953 105.15673828 66.72851562 C107.78542208 72.821858 110.42327643 78.91121555 113.0625 85 C113.56080322 86.15000488 114.05910645 87.30000977 114.57250977 88.48486328 C118.21075428 96.87977691 121.85501435 105.27207392 125.5 113.6640625 C130.91517914 126.13199481 136.3258095 138.60189352 141.73156738 151.07391357 C142.89056803 153.74755664 144.0501996 156.42092512 145.20996094 159.09423828 C146.95726981 163.12326669 148.69831904 167.15495654 150.4375 171.1875 C150.920979 172.30141113 151.40445801 173.41532227 151.90258789 174.56298828 C152.32531982 175.54638184 152.74805176 176.52977539 153.18359375 177.54296875 C153.53993896 178.36821045 153.89628418 179.19345215 154.26342773 180.04370117 C155 182 155 182 155 184 C131.24 184 107.48 184 83 184 C80.40627618 177.51569045 77.93306941 171.11603689 75.75 164.5 C75.481875 163.70335937 75.21375 162.90671875 74.9375 162.0859375 C73 156.25366709 73 156.25366709 73 154 C50.23 154.33 27.46 154.66 4 155 C1.03 164.24 -1.94 173.48 -5 183 C-6 184 -6 184 -8.85365295 184.12025452 C-10.13050461 184.11803391 -11.40735626 184.11581329 -12.72290039 184.11352539 C-13.4253035 184.11367142 -14.1277066 184.11381744 -14.85139465 184.1139679 C-17.18351278 184.11326872 -19.515552 184.10547617 -21.84765625 184.09765625 C-23.46048438 184.09579208 -25.07331307 184.09436818 -26.68614197 184.09336853 C-30.93915357 184.08954323 -35.19213124 184.07971285 -39.44512939 184.06866455 C-43.7817743 184.05845069 -48.11842467 184.05387096 -52.45507812 184.04882812 C-60.97006769 184.03809059 -69.48502963 184.02101403 -78 184 C-77.44640939 180.04046732 -76.61897537 176.66701335 -75.01318359 173.0090332 C-74.60058792 172.05993073 -74.18799225 171.11082825 -73.76289368 170.13296509 C-73.08748787 168.60728409 -73.08748787 168.60728409 -72.3984375 167.05078125 C-71.93040207 165.97871429 -71.46236664 164.90664734 -70.98014832 163.80209351 C-69.45110332 160.30290045 -67.91293015 156.80779579 -66.375 153.3125 C-65.30901128 150.87575313 -64.24364441 148.43874748 -63.17944336 146.0012207 C-61.07048053 141.17208285 -58.95916 136.34398791 -56.84619141 131.51660156 C-53.38008382 123.58979273 -49.96064431 115.64362835 -46.5625 107.6875 C-45.99341245 106.35722248 -45.4242379 105.02698217 -44.85498047 103.69677734 C-42.46481014 98.11009923 -40.07763879 92.52213975 -37.69012451 86.93432617 C-34.91183425 80.43249103 -32.13216684 73.93124733 -29.35022449 67.43097401 C-28.07531344 64.45180274 -26.80133969 61.47223669 -25.52883911 58.49203491 C-17.1733761 38.92362515 -8.58961723 19.46979906 0 0 Z M38 54 C35.12543782 60.98641007 32.53746288 68.03465693 30.109375 75.1875 C29.75989807 76.21182129 29.41042114 77.23614258 29.050354 78.29150391 C28.31968154 80.43558486 27.59034731 82.58012229 26.86230469 84.72509766 C25.74319874 88.02002461 24.61794193 91.31280821 23.4921875 94.60546875 C22.78088166 96.69518716 22.06993119 98.78502657 21.359375 100.875 C21.02194275 101.86137451 20.6845105 102.84774902 20.33685303 103.86401367 C20.02943176 104.77256104 19.7220105 105.6811084 19.40527344 106.6171875 C19.13309998 107.41753418 18.86092651 108.21788086 18.58050537 109.04248047 C17.90522891 110.97928033 17.90522891 110.97928033 18 113 C31.53 113 45.06 113 59 113 C52.45399187 93.28758917 45.90870872 73.5882212 39 54 C38.67 54 38.34 54 38 54 Z " fill="#00519B" transform="translate(780,1806)"/>
<path d="M0 0 C59.73 0 119.46 0 181 0 C181 13.86 181 27.72 181 42 C143.38 42 105.76 42 67 42 C67 53.22 67 64.44 67 76 C101.32 76 135.64 76 171 76 C171 89.86 171 103.72 171 118 C136.68 118 102.36 118 67 118 C67 139.78 67 161.56 67 184 C44.89 184 22.78 184 0 184 C0 123.28 0 62.56 0 0 Z " fill="#00529B" transform="translate(1380,1806)"/>
<path d="M0 0 C22.11 0 44.22 0 67 0 C67 60.72 67 121.44 67 184 C44.89 184 22.78 184 0 184 C0 123.28 0 62.56 0 0 Z " fill="#00519A" transform="translate(958,1806)"/>
<path d="M0 0 C20.13 0 40.26 0 61 0 C61 16.17 61 32.34 61 49 C40.87 49 20.74 49 0 49 C0 32.83 0 16.66 0 0 Z " fill="#00529A" transform="translate(542,1941)"/>
<path d="M0 0 C20.13 0 40.26 0 61 0 C61 16.17 61 32.34 61 49 C40.87 49 20.74 49 0 49 C0 32.83 0 16.66 0 0 Z " fill="#00529A" transform="translate(233,1941)"/>
</svg>
